<svg id="Calque_1" data-name="Calque 1" xmlns="http://www.w3.org/2000/svg" xmlns:xlink="http://www.w3.org/1999/xlink" viewBox="0 0 1366 768"><defs><style>.cls-1{stroke:#a7d1c9;stroke-miterlimit:10;stroke-width:2px;fill:url(#Dégradé_sans_nom_25);}</style><linearGradient id="Dégradé_sans_nom_25" x1="145.35" y1="-145.68" x2="1344.87" y2="577.18" gradientUnits="userSpaceOnUse"><stop offset="0" stop-color="#424c4b"/><stop offset="0.41" stop-color="#3e4b4a"/><stop offset="0.7" stop-color="#0f443c"/><stop offset="0.87" stop-color="#004238"/></linearGradient></defs><title>bg-nav</title><path class="cls-1" d="M152.49,195.06c48.35,1.9,94,8.62,135.09,19.21a71.14,71.14,0,0,0,33.95-.07c49-12.59,104.42-19.7,163.18-19.7,57.84,0,112.48,6.89,160.87,19.11a82.27,82.27,0,0,0,38.84,0c48.39-12.22,103-19.11,160.87-19.11,55.27,0,107.62,6.29,154.39,17.52a113.67,113.67,0,0,0,51.24.13,651.49,651.49,0,0,1,126.59-17.09c67.93-2.68,132.61,4.42,189,18.79V151.5h-711c-220-3-193-152-193-152H-.5L.44,205.72A684,684,0,0,1,152.49,195.06Z"/></svg>