<svg id="Calque_1" data-name="Calque 1" xmlns="http://www.w3.org/2000/svg" viewBox="0 0 401.41 105.05"><defs><style>.cls-1{fill:#6e7aba;}.cls-2{fill:#c9384b;}.cls-3{fill:none;stroke:#6e7aba;stroke-miterlimit:10;}</style></defs><title>klasspam</title><path class="cls-1" d="M100.54,72.23l-12-16.44L84.1,60.43v11.8H75.6V33.62h8.5V50.5L99.77,33.62H110L94.3,50l16.44,22.23Zm.18-30.29L81.05,52.57v-19h19.67Zm0,30.29H81.52V57l10.13-2.92Z"/><path class="cls-1" d="M115.87,72.23V33.62h8.5V64.56h19.25v7.67Z"/><path class="cls-1" d="M171.08,33.35h-7.82L146.72,72.24h8.64l3.52-8.67h0l3-7.51h0l5.14-12.51,5.12,12.51h0l3,7.51h0l3.52,8.67h8.89Z"/><path class="cls-1" d="M220.46,65.91a10.54,10.54,0,0,1-2.9,3.76A13.06,13.06,0,0,1,213.11,72a19.4,19.4,0,0,1-5.73.8,25.64,25.64,0,0,1-8.66-1.51A23.06,23.06,0,0,1,191,66.6l5-6A24.79,24.79,0,0,0,201.45,64a14.49,14.49,0,0,0,6.1,1.27,7.39,7.39,0,0,0,4.11-1,3,3,0,0,0,1.46-2.67v-.11a3.37,3.37,0,0,0-.3-1.46,3.14,3.14,0,0,0-1.17-1.19,12.16,12.16,0,0,0-2.37-1.1,40.15,40.15,0,0,0-4-1.16A49,49,0,0,1,200,55a15,15,0,0,1-4-2.18,8.84,8.84,0,0,1-2.57-3.23,11.12,11.12,0,0,1-.91-4.79V44.7a11.18,11.18,0,0,1,1-4.77,10.77,10.77,0,0,1,2.76-3.66,12.45,12.45,0,0,1,4.26-2.38,17.12,17.12,0,0,1,5.45-.82,23.2,23.2,0,0,1,7.8,1.26A22.59,22.59,0,0,1,220.29,38l-4.41,6.4a28.24,28.24,0,0,0-5.08-2.78,13,13,0,0,0-5-1,6,6,0,0,0-3.72,1,3,3,0,0,0-1.25,2.4V44a3.47,3.47,0,0,0,.36,1.63,3.32,3.32,0,0,0,1.3,1.24A12.18,12.18,0,0,0,205.11,48c1.08.33,2.46.72,4.12,1.16a39.4,39.4,0,0,1,5.22,1.73,14.77,14.77,0,0,1,3.87,2.32,8.81,8.81,0,0,1,2.38,3.17,10.7,10.7,0,0,1,.81,4.36v.11A11.83,11.83,0,0,1,220.46,65.91Z"/><path class="cls-2" d="M252.52,41.72A10.71,10.71,0,0,0,249.58,38a13.54,13.54,0,0,0-4.53-2.3,19.34,19.34,0,0,0-5.83-.8h-14v2.62l2.88,0H239a17.74,17.74,0,0,1,4.75.61,11.36,11.36,0,0,1,3.68,1.78,8.11,8.11,0,0,1,2.42,2.91,9.48,9.48,0,0,1,.86,4.07V47a8.63,8.63,0,0,1-3.34,6.95,11.72,11.72,0,0,1-3.8,1.93,17.47,17.47,0,0,1-4.91.65H228.1l-2.88,0v17h2.88V59.12h10.42a20.82,20.82,0,0,0,5.76-.76A14.64,14.64,0,0,0,249.09,56a11.18,11.18,0,0,0,3.28-3.86,11.39,11.39,0,0,0,1.2-5.34v-.12A11.19,11.19,0,0,0,252.52,41.72Z"/><path class="cls-2" d="M275.63,34.64h-2.76l-18,38.89h3l4.9-10.82h0L264,60.1h0l10.21-22.34L284.36,60.1h0l1.2,2.61h0l4.9,10.82h3.16Z"/><path class="cls-2" d="M335.32,73.52V40L320,62.21h-.22L304.54,40V73.52h-2.76V34.91h2.71L320,57.74l15.5-22.83h2.7V73.52Z"/><path class="cls-3" d="M51.67,68.3a44.23,44.23,0,0,0,70.71,17.29"/><path class="cls-3" d="M131.66,73.55a32.17,32.17,0,0,1-6.12,9"/><path class="cls-3" d="M122.79,19.82a37.53,37.53,0,0,1,9.31,12.51"/><path class="cls-3" d="M52.24,35.32A44.26,44.26,0,0,1,119.37,17"/><path class="cls-3" d="M50.28,64a44.44,44.44,0,0,1,.46-24.57"/><path class="cls-3" d="M63.64,28.44a37.87,37.87,0,0,1,29.12-13.9"/><path class="cls-3" d="M111.73,85.57c5.7-3.23,9-5.63,12.36-11.25"/><path class="cls-3" d="M73.09,84.87a38,38,0,0,0,34.65,2.66"/><path class="cls-3" d="M125.05,32.33a25.2,25.2,0,0,0-3.68-5.06"/><path class="cls-3" d="M56.36,62.53A38.12,38.12,0,0,0,69.48,82.35"/><path class="cls-3" d="M97.15,14.77a37.72,37.72,0,0,1,21.09,9.37"/><path class="cls-3" d="M55.46,58.22a37,37,0,0,1-.43-5.7,37.68,37.68,0,0,1,6-20.52"/><path class="cls-3" d="M104.23,23.31c5.4,2.08,9.18,4.52,12.66,9"/><path class="cls-3" d="M115.77,74.16c-.84,1.06-.08,0-1.06.9"/><path class="cls-3" d="M61.72,52.32v.2A31.12,31.12,0,0,0,67.06,70"/><path class="cls-3" d="M90.43,83.7c.84.07,1.7.1,2.57.1a31.22,31.22,0,0,0,18.33-5.92"/><path class="cls-3" d="M69.84,73.55A31.24,31.24,0,0,0,86.05,83"/><path class="cls-3" d="M85.88,22.06A31,31,0,0,1,93,21.24a31.8,31.8,0,0,1,7,.79"/><path class="cls-3" d="M71.26,30a31,31,0,0,1,10.41-6.67"/><path class="cls-3" d="M62.06,47.93a31,31,0,0,1,6.25-14.6"/></svg>